<svg id="ecqL2FW9ITS1" xmlns="http://www.w3.org/2000/svg" xmlns:xlink="http://www.w3.org/1999/xlink" viewBox="0 0 300 300" shape-rendering="geometricPrecision" text-rendering="geometricPrecision" project-id="9df70d47498e4e56945532671b9eb1ef" export-id="980c13ac5cc943628bb0349ad6cf597a" cached="false"><g><rect width="30.634528" height="28.069777" rx="1" ry="1" transform="matrix(2.774647 0 0 3.028168 117.500001 117.5)" fill="none" stroke="#000"/></g><rect width="30" height="30" rx="0" ry="0" transform="translate(145 144.999999)" fill="none" stroke="#000" stroke-width="2"/><rect width="70" height="70" rx="4" ry="4" transform="translate(125 125)" fill="none" stroke="#000" stroke-width="2"/><path d="M207.464789,159.999999l20,.000001" transform="translate(-109.964789-.499998)" fill="none" stroke="#000" stroke-width="2"/><path d="M207.464789,174.999999h20" transform="translate(-109.964789-.499999)" fill="none" stroke="#000" stroke-width="2"/><path d="M207.464789,144.999999h20" transform="translate(-109.964789-.499999)" fill="none" stroke="#000" stroke-width="2"/><path d="M207.464789,174.999999h20" transform="translate(-4.964788-.499999)" fill="none" stroke="#000" stroke-width="2"/><path d="M207.464789,144.999999h20" transform="translate(-4.964788 9.882047)" fill="none" stroke="#000" stroke-width="2"/><path d="M145,110.34507v-22.394366" transform="translate(.000001 7.15493)" fill="none" stroke="#000" stroke-width="2"/><path d="M160,110.34507v-22.394366" transform="translate(.000001 7.15493)" fill="none" stroke="#000" stroke-width="2"/><path d="M175,110.34507v-22.394366" transform="translate(.000001 7.15493)" fill="none" stroke="#000" stroke-width="2"/><path d="M145,210.06338v24.084507" transform="translate(0-7.56338)" fill="none" stroke="#000" stroke-width="2"/><path d="M160.000001,210.063381v24.084507" transform="translate(0-7.56338)" fill="none" stroke="#000" stroke-width="2"/><path d="M175,210.063382v24.084506" transform="translate(0-7.563381)" fill="none" stroke="#000" stroke-width="2"/><path d="M259.43662,159.999999L283.521127,150l5.070422-17.471832" transform="translate(-7.5-.499997)" fill="none" stroke="#000" stroke-width="2"/><path d="M248.028169,159.999999l25.985915-13.735913v-16.264087" transform="translate(-7.5-.499992)" fill="none" stroke="#000" stroke-width="2"/><path d="" transform="translate(-7.5-.499999)" fill="none" stroke="#000" stroke-width="2"/><path d="M210,160.000002l64.014083-.000004l21.760566-10.038729" transform="translate(-7.499999-.499998)" fill="none" stroke="#000" stroke-width="2"/><ellipse rx="2.5" ry="2.5" transform="translate(245.887326 136.764086)" fill="none" stroke-width="0"/><ellipse rx="2" ry="2" transform="translate(246.387326 137.422536)" fill="none" stroke="#000"/><ellipse rx="2" ry="2" transform="translate(266.514084 127.500001)" fill="none" stroke="#000"/><ellipse rx="2" ry="2" transform="translate(281.091549 130.264086)" fill="none" stroke="#000"/><ellipse rx="2" ry="2" transform="translate(290.27465 147.764089)" fill="none" stroke="#000"/><path d="M239.014086,159.999999l13.87324-9.735911l1-10.341554" transform="translate(-7.5-.499998)" fill="none" stroke="#000" stroke-width="2"/><path d="M230,144.999999l9.014086-5.077464v-5.15845" transform="translate(-7.499999 9.882048)" fill="none" stroke="#000" stroke-width="2"/><ellipse rx="2" ry="2" transform="translate(231.514087 142.646131)" fill="none" stroke="#000"/></svg>
